<?xml version="1.0" standalone="no"?>
<!DOCTYPE svg PUBLIC "-//W3C//DTD SVG 20010904//EN"
 "http://www.w3.org/TR/2001/REC-SVG-20010904/DTD/svg10.dtd">
<svg version="1.0" xmlns="http://www.w3.org/2000/svg"
 width="396.000000pt" height="209.000000pt" viewBox="0 0 396.000000 209.000000"
 preserveAspectRatio="xMidYMid meet">
<metadata>
Created by potrace 1.16, written by Peter Selinger 2001-2019
</metadata>
<g transform="translate(0.000000,209.000000) scale(0.100000,-0.100000)"
fill="#000000" stroke="none">
<path d="M3524 2066 c-88 -34 -139 -62 -180 -98 -31 -27 -43 -31 -82 -29 -32
1 -60 -5 -87 -19 -45 -24 -203 -59 -285 -64 -30 -1 -70 -10 -88 -20 -18 -9
-38 -13 -45 -9 -7 4 -41 11 -77 15 -36 4 -84 10 -108 14 -75 11 -132 -3 -171
-44 -36 -36 -36 -36 -114 -33 -64 2 -86 7 -114 27 -60 41 -201 30 -241 -19
-13 -15 -16 -13 -39 14 -34 40 -56 50 -133 61 -134 19 -210 21 -234 4 -22 -14
-25 -13 -42 6 -36 40 -113 68 -190 68 -53 0 -75 4 -85 16 -46 56 -175 72 -258
32 -43 -20 -161 -130 -259 -240 -23 -26 -61 -55 -84 -66 -50 -22 -133 -107
-154 -157 -16 -40 -19 -108 -4 -135 16 -29 -61 -123 -267 -326 -179 -176 -183
-181 -183 -222 0 -22 5 -52 11 -65 49 -107 279 -22 490 180 90 87 99 93 99 69
0 -37 23 -78 61 -111 29 -24 38 -26 88 -21 176 16 211 34 297 151 27 36 51 65
55 65 3 0 13 -7 20 -16 12 -15 10 -19 -11 -32 -14 -9 -51 -42 -84 -74 l-58
-57 4 -66 4 -65 -28 0 c-65 0 -183 -92 -254 -197 -53 -78 -192 -249 -244 -298
-78 -74 -100 -112 -100 -172 0 -47 4 -59 29 -84 38 -37 88 -38 173 -4 36 15
81 25 109 25 40 0 72 12 176 65 71 36 159 85 197 110 l69 45 38 -35 c43 -39
71 -43 161 -24 66 14 137 49 186 92 71 62 66 61 105 22 34 -34 37 -35 116 -35
120 0 155 22 260 163 24 31 47 57 51 57 4 0 11 -11 14 -24 9 -36 53 -84 100
-109 58 -31 239 -31 341 0 67 20 84 24 168 38 36 6 38 5 28 -14 -17 -32 -13
-75 12 -112 32 -48 104 -94 325 -206 185 -94 196 -98 267 -101 57 -3 81 0 100
12 13 9 31 16 39 16 29 0 10 114 -34 205 -122 252 -142 305 -118 305 38 0 156
71 204 122 69 72 84 105 84 175 0 70 -22 121 -80 186 -41 47 -38 59 10 32 40
-23 142 -19 173 6 l27 20 45 -26 c29 -18 66 -29 105 -32 58 -6 60 -5 95 30 55
55 49 102 -28 186 -22 24 -63 92 -92 155 -44 92 -51 114 -40 126 24 29 55 99
76 175 17 62 20 98 17 185 -3 120 -13 143 -78 188 -47 32 -170 31 -256 -2z
m195 -122 c22 -16 23 -21 18 -103 -7 -122 -30 -185 -94 -249 -29 -29 -53 -60
-53 -68 0 -9 18 -36 40 -61 22 -25 40 -50 40 -55 0 -18 72 -153 106 -199 38
-52 40 -59 20 -59 -42 0 -110 105 -185 283 -15 36 -29 52 -51 60 -40 15 -38
38 8 62 57 30 103 131 110 240 4 75 3 84 -17 104 -11 11 -31 21 -43 21 -30 0
-83 -33 -102 -62 -27 -43 -47 -143 -53 -268 -7 -144 3 -189 68 -329 30 -65 36
-87 27 -93 -36 -23 -57 7 -107 157 -43 128 -51 197 -43 374 8 182 2 173 158
227 114 39 121 40 153 18z m-2601 -69 c11 -10 4 -32 -41 -125 -31 -61 -79
-184 -107 -273 -60 -187 -192 -460 -219 -455 -28 6 -23 46 12 106 123 203 155
337 91 378 -30 20 -128 22 -150 3 -18 -15 -54 -84 -99 -189 -17 -42 -47 -99
-65 -126 -49 -71 -178 -202 -225 -229 -98 -56 -89 -36 47 101 76 77 149 155
163 174 24 32 135 249 135 263 0 3 -14 1 -31 -5 -16 -6 -33 -8 -36 -4 -12 12
32 47 73 57 28 7 49 20 60 38 30 45 194 230 228 256 68 51 129 63 164 30z
m247 -69 c42 -18 42 -20 15 -201 -11 -71 -20 -147 -20 -168 0 -36 2 -38 28
-35 20 2 31 12 42 37 23 52 152 305 160 314 4 5 20 7 34 5 26 -3 26 -4 -44
-98 -74 -101 -95 -139 -160 -290 -62 -144 -60 -142 -110 -156 -54 -16 -90 -18
-90 -4 0 6 9 29 21 51 26 52 71 270 67 329 -3 38 -7 46 -25 48 -28 4 -77 -69
-138 -207 -24 -55 -82 -152 -134 -227 -93 -134 -116 -162 -128 -150 -9 9 9 39
99 161 93 126 288 506 288 561 0 17 3 34 7 37 11 11 52 8 88 -7z m1885 -50 c0
-51 -10 -106 -19 -106 -3 0 -15 17 -26 37 -41 77 -115 78 -135 2 -18 -67 8
-167 49 -189 11 -5 43 -10 71 -10 32 0 49 -4 45 -10 -3 -5 -26 -10 -49 -10
-28 0 -52 -7 -67 -19 l-23 -18 17 -68 c27 -110 76 -155 170 -155 34 0 77 40
78 72 0 17 6 11 24 -26 13 -28 21 -54 18 -59 -3 -5 -59 -5 -128 -1 -87 5 -124
3 -129 -5 -16 -25 -45 -11 -55 27 -33 123 -77 355 -94 496 -2 21 7 25 131 46
40 7 77 19 83 27 23 27 39 15 39 -31z m-1452 -21 c2 -2 5 -46 5 -97 l2 -93 29
-3 c21 -3 38 5 65 30 82 76 91 82 91 66 0 -9 -28 -36 -63 -61 -91 -65 -130
-113 -192 -236 -36 -74 -61 -112 -75 -116 -12 -4 -24 -4 -27 -1 -11 10 18 89
59 166 47 85 57 155 40 275 -5 39 -7 74 -5 78 4 7 62 0 71 -8z m764 0 c6 -6
-75 -268 -122 -397 -30 -83 -34 -88 -68 -98 -81 -22 -92 -11 -92 94 0 125 -21
177 -65 160 -8 -3 -39 -55 -70 -115 -60 -117 -73 -129 -141 -129 -21 0 -37 6
-40 14 -3 8 6 79 21 158 14 79 29 176 32 216 6 71 6 72 34 72 27 0 29 -3 29
-37 0 -21 -7 -78 -15 -128 -20 -125 -19 -152 6 -165 43 -23 95 47 148 198 27
77 46 100 75 89 11 -5 16 -19 16 -51 0 -62 19 -195 32 -229 12 -32 39 -50 62
-41 32 12 65 142 82 316 5 50 10 68 23 71 24 7 47 8 53 2z m341 -45 c-8 -102
26 -337 62 -439 19 -54 19 -51 -10 -51 -34 0 -50 30 -64 119 -6 40 -16 82 -22
93 -17 31 -70 58 -117 58 l-43 0 3 -127 3 -128 -29 0 -29 0 2 128 c2 123 2
127 -18 127 -12 0 -21 5 -21 10 0 6 9 10 21 10 20 0 20 3 13 83 -4 45 -11 93
-15 105 -12 31 -4 42 31 42 l29 0 3 -112 3 -113 67 -3 c86 -4 93 7 85 128 -7
90 1 114 33 107 10 -2 14 -13 13 -37z m-230 -595 c50 -21 104 -77 117 -122 6
-21 14 -70 17 -108 11 -142 -45 -244 -154 -278 -309 -98 -451 -105 -483 -26
-29 68 25 221 131 374 60 87 94 119 164 151 59 28 153 32 208 9z m-713 -5 c0
-12 -85 -142 -132 -201 -43 -56 -39 -61 45 -54 39 4 89 11 109 16 51 13 116
80 161 165 20 40 44 75 53 78 24 9 54 7 54 -4 0 -13 -71 -128 -127 -208 -39
-55 -315 -407 -332 -423 -3 -4 -21 -9 -39 -13 -60 -11 -50 17 45 121 118 130
143 165 143 196 0 32 -25 47 -78 47 -87 0 -96 -6 -201 -129 -168 -197 -270
-285 -353 -305 -56 -13 -27 23 120 154 147 132 252 237 252 254 0 4 -11 5 -25
2 -14 -4 -25 -2 -25 4 0 5 20 15 44 21 38 9 51 20 88 72 53 75 98 157 98 179
0 9 8 22 18 27 23 14 82 14 82 1z m-277 -42 c-27 -46 -107 -128 -125 -128 -16
0 -16 3 -2 37 21 50 7 79 -44 92 -101 28 -262 -58 -262 -138 0 -19 14 -41 45
-71 25 -24 52 -63 61 -87 16 -40 16 -46 0 -87 -23 -60 -80 -110 -217 -191 -63
-37 -140 -86 -172 -107 -80 -54 -256 -138 -290 -138 -16 0 -60 -14 -99 -31
-38 -17 -73 -28 -76 -24 -3 3 21 34 54 68 75 77 179 204 227 277 35 53 117
142 117 126 0 -4 -11 -22 -24 -39 -32 -43 -50 -81 -85 -177 -17 -44 -27 -88
-24 -96 14 -37 95 -7 223 84 47 33 106 76 132 94 90 63 140 155 117 214 -5 16
-37 56 -70 90 -32 34 -59 68 -59 74 0 25 74 81 167 127 l96 48 148 5 c81 3
151 8 155 12 17 18 23 -6 7 -34z m1579 -2 c104 -49 176 -159 147 -227 -6 -16
-29 -47 -51 -68 -37 -38 -74 -55 -176 -81 -24 -6 -52 -20 -63 -31 -28 -28 -25
-107 8 -194 51 -138 82 -230 82 -249 1 -16 -4 -18 -35 -13 -41 7 -247 104
-283 134 l-24 19 37 22 c66 39 73 61 80 270 6 175 -3 376 -20 431 l-7 24 124
-5 c108 -4 131 -8 181 -32z"/>
<path d="M939 1807 c-45 -30 -189 -197 -189 -219 0 -15 10 -18 69 -18 65 0 72
2 102 32 32 33 99 159 99 188 0 19 -19 40 -36 40 -6 0 -26 -10 -45 -23z"/>
<path d="M2503 1080 c-112 -68 -275 -405 -241 -501 22 -64 98 -67 213 -8 181
92 237 165 243 314 3 68 0 87 -20 125 -42 83 -126 113 -195 70z m81 -126 c17
-45 -12 -134 -62 -188 -32 -33 -102 -80 -109 -72 -14 14 135 276 157 276 4 0
11 -7 14 -16z"/>
<path d="M3088 1063 c-24 -6 -33 -44 -31 -132 2 -111 12 -158 39 -191 21 -25
33 -30 69 -30 114 0 186 79 170 187 -5 38 -16 55 -58 98 -61 61 -127 84 -189
68z"/>
</g>
</svg>
